<svg width="16" height="16" viewBox="0 0 16 16" fill="none" xmlns="http://www.w3.org/2000/svg">
<g clip-path="url(#clip0_4_82)">
<path d="M6.49284 0.333313H9.12442C9.35834 0.333313 9.4753 0.392572 9.4753 0.511091V16.1555C9.4753 16.2741 9.35834 16.3333 9.12442 16.3333H6.49284C6.25893 16.3333 6.14197 16.2741 6.14197 16.1555V0.511091C6.14197 0.392572 6.25893 0.333313 6.49284 0.333313Z" fill="white"/>
<path d="M0.328014 6.33331H15.9559C16.08 6.33331 16.142 6.45027 16.142 6.68419V9.31577C16.142 9.54969 16.08 9.66665 15.9559 9.66665H0.328014C0.203983 9.66665 0.141968 9.54969 0.141968 9.31577V6.68419C0.141968 6.45027 0.203983 6.33331 0.328014 6.33331Z" fill="white"/>
</g>
<defs>
<clipPath id="clip0_4_82">
<rect width="16" height="16" fill="white"/>
</clipPath>
</defs>
</svg>
