<svg width="32" height="32" viewBox="0 0 32 32" fill="none" xmlns="http://www.w3.org/2000/svg">
<path d="M29.2 5H8.97995C8.59014 5.00232 8.20628 5.09576 7.85901 5.27287C7.51175 5.44997 7.21072 5.70583 6.97995 6.02L0.779953 14.52C0.46771 14.9503 0.299561 15.4683 0.299561 16C0.299561 16.5317 0.46771 17.0497 0.779953 17.48L6.95995 26C7.1918 26.313 7.49307 26.5681 7.84009 26.745C8.18711 26.922 8.57043 27.0161 8.95995 27.02H29.2C29.863 27.02 30.4989 26.7566 30.9677 26.2878C31.4366 25.8189 31.7 25.183 31.7 24.52V7.5C31.7 6.83696 31.4366 6.20107 30.9677 5.73223C30.4989 5.26339 29.863 5 29.2 5ZM29.2 24.5H8.97995L2.79995 16L8.97995 7.5H29.2V24.5Z" fill="white"/>
<path d="M15.72 21.1L19.7 17.66L23.68 21.1L25.32 19.22L21.62 16L25.32 12.78L23.68 10.9L19.7 14.34L15.72 10.9L14.08 12.78L17.8 16L14.08 19.22L15.72 21.1V21.1Z" fill="white"/>
</svg>
