<svg width="32" height="32" viewBox="0 0 32 32" fill="none" xmlns="http://www.w3.org/2000/svg">
<path fill-rule="evenodd" clip-rule="evenodd" d="M4.66667 25.3334H27.3333C28.8 25.3334 30 24.1334 30 22.6667V9.33335C30 7.86669 28.8 6.66669 27.3333 6.66669H4.66667C3.2 6.66669 2 7.86669 2 9.33335V22.6667C2 24.1334 3.2 25.3334 4.66667 25.3334ZM4 22.6667V9.33335C4 8.93335 4.26667 8.66669 4.66667 8.66669H27.3333C27.7333 8.66669 28 8.93335 28 9.33335V22.6667C28 23.0667 27.7333 23.3334 27.3333 23.3334H4.66667C4.26667 23.3334 4 23.0667 4 22.6667Z" fill="#18191B"/>
<path d="M17.3333 10L13.4 14.6667H21.2667L17.3333 10Z" fill="#5188A4"/>
<path d="M16 14V18C16 18.7333 15.4 19.3333 14.6667 19.3333C13.9333 19.3333 13.3333 18.7333 13.3333 18V16.6667H10.6667V18C10.6667 20.2 12.4667 22 14.6667 22C16.8667 22 18.6667 20.2 18.6667 18V14H16Z" fill="#5188A4"/>
</svg>
