<svg width="32" height="32" viewBox="0 0 32 32" fill="none" xmlns="http://www.w3.org/2000/svg">
<path fill-rule="evenodd" clip-rule="evenodd" d="M6.66667 4.66667V27.3333C6.66667 28.8 7.86667 30 9.33333 30H22.6667C24.1333 30 25.3333 28.8 25.3333 27.3333V4.66667C25.3333 3.2 24.1333 2 22.6667 2H9.33333C7.86667 2 6.66667 3.2 6.66667 4.66667ZM9.33333 4H22.6667C23.0667 4 23.3333 4.26667 23.3333 4.66667V27.3333C23.3333 27.7333 23.0667 28 22.6667 28H9.33333C8.93333 28 8.66666 27.7333 8.66666 27.3333V4.66667C8.66666 4.26667 8.93333 4 9.33333 4Z" fill="#18191B"/>
<path d="M14.6667 22.6667L18.6 18H10.7333L14.6667 22.6667Z" fill="#5188A4"/>
<path d="M17.3333 10.6666C15.1333 10.6666 13.3333 12.4666 13.3333 14.6666V18.6666H16V14.6666C16 13.9333 16.6 13.3333 17.3333 13.3333C18.0667 13.3333 18.6667 13.9333 18.6667 14.6666V16H21.3333V14.6666C21.3333 12.4666 19.5333 10.6666 17.3333 10.6666Z" fill="#5188A4"/>
</svg>
